<svg width="806" height="893" viewBox="0 0 806 893" fill="none" xmlns="http://www.w3.org/2000/svg"><path fill-rule="evenodd" clip-rule="evenodd" d="M806 0H0v892.613c40.055-139.518 269.404-144.835 340.132-242.44 47.659-65.769 72.943-138.491 47.487-212.488-13.336-38.766-14.893-84.924-15.132-90.849-.238-5.924-5.97-34.911 10.348-60.01 16.318-25.102 51.987-51.609 79.373-68.404 27.387-16.794 67.072-23.485 106.555-30.778 39.487-7.29 84.137-27.496 118.612-44.955 34.481-17.462 74.305-56.013 89.784-80.308C792.637 38.084 806 0 806 0z" fill="#EFEEF9"/><path fill-rule="evenodd" clip-rule="evenodd" d="M500.27 204.121a42.784 42.784 0 0 1-.509 5.812c-.774 4.84-2.529 9.409-5.957 12.195-2.083 1.69-7.468 5.707-14.676 11.092-25.661 19.145-74.533 55.613-85.092 70.1-6.781 9.306-10.655 16.599-12.49 23.129-1.861 6.641-1.623 12.463-.172 18.754.985 4.268.162 7.115-1.269 8.543-.43.43-.913.721-1.399.869a2.632 2.632 0 0 1-1.385.047c-1.071-.261-2.046-1.266-2.473-3.048-1.071-4.46-2.033-16.672-1.527-28.875.35-8.466 1.411-16.877 3.633-22.563 3.478-8.887 24.851-41.999 67.316-69.455l.08-.057c15.71-10.146 34.296-19.501 55.92-26.543zm-13.627-26.081c-1.742 1.101-3.766 2.241-6.07 3.408-10.46 5.316-26.375 10.989-47.371 16.795-27.076 7.488-62.589 15.191-105.722 22.619-49.034 8.447-90.104 13.475-120.982 15.958-38.67 3.108-60.916 2.529-62.381-.254-.866-1.643.91-3.941 4.84-6.708 9.165-6.46 29.027-14.213 54.883-21.962 25.972-7.789 57.917-15.548 91.126-21.981 76.827-14.894 160.399-22.874 191.677-7.875zM340.291 403.742c6.747-10.827 12.999-18.097 18.434-22.927 9.419-8.374 16.067-9.303 18.497-8.929-.123.125-.516.337-.761.919-.595 1.398-1.656 3.25-3.054 5.372-4.949 7.508-13.991 18.239-21.873 24.808-5.097 4.248-8.681 3.719-11.243.757zm130.582 106.77c-.033-.013-.056-.036-.079-.079l-.059-.109c-.04-.093.026.023.138.188zm1.465 56.056c-.602-4.612 1.716-8.718 6.863-15.297 2.341.066 4.655.093 6.893.116 4.017.043 7.776.086 10.874.38 4.539.433 7.722 1.855 9.957 3.557a14.757 14.757 0 0 1 4.271 5.178c-.542-.384-1.203-.939-1.983-1.686-2.397-2.311-5.012-3.644-7.968-4.282-2.856-.624-6-.588-9.57-.181-7.115.806-7.439 1.167-10.794 4.836l.003.003-.357.391-.076.076c-1.822 1.986-3.528 4.122-4.433 6.684-.939 2.662-.992 5.68.585 9.276a20.856 20.856 0 0 1 1.544 5.546l-.632-1.161c-2.053-3.773-4.503-8.272-5.177-13.436zm34.495-53.917c-4.725 5.746-9.492 11.515-13.638 16.533-3.782 4.579-7.084 8.573-9.084 11.019l-.08.099-1.547 1.881a571.872 571.872 0 0 0-4.77 5.872c-5.895-.235-11.803-.817-16.669-2.46-4.586-1.551-8.705-5.63-11.776-10.268-3.759-5.667-5.911-12.037-5.445-15.611.42-3.223 1.031-5.052 1.888-6.004.707-.78 1.775-.985 3.21-.985v-.007h.522c2.731-.013 4.205-.016 6.572 4.85 1.154 2.367 1.971 4.774 2.688 6.897 1.187 3.507 2.142 6.321 4.1 7.544 2.089 1.306 6.85.763 11.266.258 2.143-.245 4.199-.48 5.69-.48.909 0 1.699-.211 2.38-.598.906-.513 1.557-1.313 1.967-2.314l.033-.093c.341-.863.5-1.861.5-2.936 0-2.691-1.002-6.093-2.728-9.137-2.202-3.875-5.838-5.197-8.619-5.918 1.359-.255 3.164-.532 5.455-.873 2.893-.43 8.474-.046 14.368.651 4.807.572 9.789 1.353 13.717 2.08zm-34.915-33.242c4.562-4.185 10.864-9.967 19.776-17.442 5.769 1.121 13.667 1.236 19.102 1.313 2.688.039 4.556-2.424 4.556-1.181 0 .01-.397.126-1.726.619-1.322.495-3.312.965-6.235 1.295-4.879.546-7.461.797-9.028.949a91.136 91.136 0 0 0-2.093.215v.003c-1.309.179-2.318 1.283-3.157 2.202-.294.321-.556.609-.579.622-.324.178-1.405.982-2.416 2.023-.784.807-1.584 1.805-2.077 2.863-.611 1.296-.77 2.675-.056 3.974.189.33.43.648.727.939 1.343 1.302 3.723 2.496 6.444 3.501 3.269 1.213 7.118 2.195 10.176 2.77.522.099.942.202 1.269.308-.443.082-1.002.115-1.673.082-2.238-.115-4.737-.532-7.385-1.316a39.672 39.672 0 0 1-7.482-3.107c-2.988-1.61-4.598-2.447-6.218-2.609-1.756-.181-3.075.397-5.445 1.627-2.589 1.342-5.326 3.722-6.784 6.638-1.22 2.44-1.57 5.237-.298 8.116.771 1.736.883 3.032.681 3.835-.479-.895-1.011-1.772-1.567-2.704-.836-1.388-1.742-2.899-2.668-4.79l-.006.003v-.003l-.159-.321-.039-.092c-1.234-2.506-2.156-4.378 2.016-8.179l-.003-.004.003-.003 2.265-2.076.079-.07zm-4.658-64.063c-4.119 4.635-8.685 9.545-12.774 13.889-.275-2.311-.106-4.543.436-6.526.87-3.194 2.698-5.726 5.161-6.854.129-.059.264-.115.4-.168a10.827 10.827 0 0 1 6.777-.341zm-11.954 17.631c4.678-4.949 10.169-10.834 15.009-16.312a12.766 12.766 0 0 1 4.625 4.949c1.402 2.662 2.45 5.878 3.339 8.606 1.111 3.412 2.007 6.152 3.488 6.989 1.15.648 4.737.707 8.331.423 3.752-.294 7.713-.956 8.959-1.67l.073-.046h.003l.086-.056.073-.05c1.358-1.002 1.765-3.865 1.296-7.167-.417-2.923-1.458-6.361-3.029-9.082l-.003-.003.003-.003a16.553 16.553 0 0 0-.958-1.475c-1.538-2.092-3.214-3.478-4.725-4.433 3.21-.036 7.581.175 11.975.817.687.102 1.772.254 2.816.4 6.811.955 10.788 1.514 13.013 4.677.486.691 1.117 1.806 1.844 3.237a264.285 264.285 0 0 1-9.58 13.283c-6.047 7.865-12.705 15.585-18.101 20.018-1.018.833-2.003 1.65-2.962 2.447-5.154-1.406-13.415-5.498-20.705-10.315-6.556-4.328-12.249-9.178-14.017-13.039-.172-.38-.338-.767-.486-1.154a20.51 20.51 0 0 1-.367-1.041zm22.893-64.149l1.31-2.688c2.059 4.774 4.535 8.804 6.674 11.012 3.882 4.007 15.975 8.192 22.217 10.351l.75.261c-2.47.639-6.341.873-10.718-.585-1.21-.403-2.942-.998-4.374-1.487-1.811-.622-2.856-.979-3.554-1.148-1.792-.423-2.115-.033-2.869.88l-.004.006-.056.063c-.869 1.042-3.131 5.164-8.407 14.788v.006l-.013.024-.046.079c-1.515 2.757-5.148 7.286-9.574 12.371-3.164-1.223-6.735-1.359-10.193-.023a9.772 9.772 0 0 0-.572.241c-3.345 1.531-5.782 4.814-6.896 8.9-.836 3.074-.932 6.622-.096 10.219l-3.101 3.273c-3.435 3.62-5.898 6.215-6.476 6.972-1.971 2.572 1.504 7.385 5.306 12.655 2.046 2.84 4.208 5.828 5.554 8.404 1.537 2.945 2.129 5.432 2.202 7.154a201.684 201.684 0 0 1-1.885-2.81c-2.545-3.832-6.007-9.042-9.048-12.477-1.947-2.198-4.119-4.965-6.027-7.524-2.668-3.581-4.774-6.675-5.012-7.234-.185-.433 3.204-4.069 7.782-10.909 10.252-15.304 27.85-41.583 37.126-60.774zm10.239-20.365c3.402-6.642 6.787-13.25 9.859-19.585a26.046 26.046 0 0 1 6.373 2.063c3.416 1.617 5.779 3.62 6.53 4.966.413.747.205 2.846-.02 5.151-.374 3.844-.797 8.155 1.468 10.645 1.299 1.428 3.2 3.048 5.177 4.582 2.936 2.274 6.047 4.361 7.557 5.306.05.03.096.06.149.083.463.261.909.387 1.339.39 1.058.01 1.762-.559 2.172-1.541.228-.545.337-1.259.354-2.063.043-2.076-.539-5.127-1.24-7.266a3.072 3.072 0 0 1-.155-.658c.069 0 .152.006.244.02.747.105 1.676.595 2.434 1.352 1.325 1.326 3.342 3.838 4.605 7.167.849 2.242 1.355 4.857 1.071 7.72-.43 4.271-2.235 15.766-4.1 26.133-1.487 8.279-3.008 15.813-3.881 18.289-.512 1.468-2.291 4.579-4.86 8.556-.469-.86-.889-1.554-1.243-2.053-3.018-4.291-7.494-4.916-15.167-5.994-.734-.102-1.518-.211-2.794-.4-6.076-.889-12.139-.978-15.406-.734-.83.06-1.507.149-1.987.251-1.292.281-1.96.933-1.868 1.981h.004c.013.178.056.36.139.539.033.086.079.168.135.251.39.588 1.015.853 1.931 1.236 1.554.658 4.413 1.865 6.787 5.101.271.371.532.771.777 1.191 1.355 2.347 2.258 5.362 2.628 7.947.308 2.182.334 3.868-.02 4.159-.915.473-4.261.962-7.58 1.223-3.085.242-5.968.301-6.536-.016-.394-.222-1.121-2.45-2.02-5.217-.926-2.837-2.017-6.182-3.551-9.101a16.003 16.003 0 0 0-5.319-5.885c4.344-5.025 7.911-9.511 9.462-12.335l.046-.092.01-.02h.003c4.926-8.982 7.171-13.075 7.954-14.14.566.149 1.534.48 3.131 1.025.82.281 1.957.671 4.41 1.488 5.931 1.977 11.165 1.236 13.935.198.731-.274 1.336-.592 1.769-.896h.006c.771-.549 1.171-1.233 1.151-1.947v-.007c-.017-.634-.314-1.147-.886-1.504l-.004-.003.004-.003c-.433-.272-1.891-.777-3.987-1.501-5.994-2.073-17.601-6.09-20.977-9.571-2.264-2.337-4.992-7.082-7.061-12.602a1460.31 1460.31 0 0 1 7.048-13.879zm6.529-19.961c-2.929 5.997-6.129 12.242-9.342 18.523a1644.927 1644.927 0 0 0-5.64 11.065c-1.25-4.361-1.954-8.896-1.624-12.903.42-5.022 2.523-9.221 5.502-12.153 3.071-3.015 7.071-4.691 11.104-4.532zM316.66 462.589c1.583.291 3.213.565 4.866.843 5.505.925 11.26 1.897 16.08 3.6 5.849 2.063 12.031 8.906 17.396 17.65 6.11 9.958 11.095 22.302 13.353 32.941 2.119 9.994 1.432 20.646-.168 29.972-1.61 9.396-4.146 17.456-5.68 22.213-.595 1.852-.589 3.207-.136 4.06.714 1.342 1.984 1.624 3.597.935.936-.396 2.07-1.216 3.283-2.403 4.364-4.258 10.457-13.898 12.444-26.345 1.762-11.056 1.729-24.061-.017-36.842-1.679-12.302-4.945-24.425-9.723-34.442-2.823-5.914-5.448-10.655-7.59-14.523-4.734-8.546-6.943-12.523-4.007-16.745 3.035-4.36 10.592-10.543 17.042-15.819 3.733-3.051 7.108-5.815 9.125-7.828 1.977-1.977 4.549-2.642 7.207-2.539 3.765.148 7.703 1.795 10.519 3.534 2.252 1.391 4.543 3.173 6.649 5.015 2.661 2.327 5.022 4.751 6.622 6.608 1.16 1.343 2.582 1.852 3.881 1.65l.006-.003v.003a3.61 3.61 0 0 0 2.083-1.124c.509-.549.899-1.289 1.108-2.185.509-2.228-.139-5.703-3.2-9.915-5.525-7.59-9.505-10.291-13.274-12.85-.463-.317-.909-.618-1.669-1.151-1.28-.902-2.45-1.395-3.425-1.801l-.119-.047c-.391-.165-.744-.314-1.002-.459-.513-.284-.463-.942 1.15-3.845 2.086-3.756 7.138-11.035 11.809-17.059 3.729-4.81 7.118-8.744 8.295-9.194 1.448-.552 4.496-.532 7.855-.02 3.144.483 6.476 1.412 8.972 2.731 2.443 1.289 4.394 1.957 5.68 2.013.83.034 1.514-.162 2.03-.578.645-.522.929-1.25.836-2.172-.089-.86-.598-1.964-1.57-3.299l-.003-.004.003-.003c-1.617-2.208-2.956-3.541-4.913-4.615-1.861-1.025-4.192-1.752-7.871-2.79-2.655-.751-3.65-1.531-3.554-2.622.145-1.633 1.726-4.209 4.01-7.888 2.665-4.301 7.217-11.257 11.108-16.917 3.028-4.4 5.614-7.974 6.503-8.767.757-.685 2.04-.876 3.689-.562 1.875.357 4.136 1.355 6.619 3.021 2.668 1.792 5.005 2.718 6.533 2.84.773.06 1.448-.073 1.98-.387.75-.436 1.15-1.134 1.154-2.059.003-.81-.384-1.815-1.24-2.959-1.491-2.003-3.214-3.451-5.075-4.592-1.802-1.104-3.722-1.917-5.699-2.681-1.709-.665-2.962-1.204-3.551-1.795-.311-.318-.35-.79-.04-1.574.724-1.835 7.988-15.115 15.572-26.372 4.301-6.38 8.661-12.057 11.881-14.47 2.238-1.679 4.962-2.522 7.749-2.575h.007a15.56 15.56 0 0 1 6.929 1.504 15.336 15.336 0 0 1 5.72 4.651c1.934 2.576 3.177 5.948 3.253 10.057.155 7.852-4.698 20.054-11.284 33.82-.376-.036-.76-.063-1.143-.082-4.989-.265-9.918 1.755-13.661 5.431-3.494 3.439-5.957 8.328-6.443 14.147-.44 5.253.721 11.26 2.582 16.728l.169.492a565.861 565.861 0 0 0-2.606 5.307c-9.193 19.015-26.705 45.166-36.898 60.39-5.16 7.703-8.555 12.774-8.069 13.911.304.711 2.582 4.116 5.385 7.872 1.944 2.618 4.175 5.458 6.202 7.739 2.873 3.25 6.271 8.364 8.771 12.126 1.63 2.453 2.896 4.361 3.531 4.996.519.519 1.11.744 1.745.694.767-.059 1.395-.502 1.822-1.286.248-.453.433-1.055.525-1.779.271-2.125-.228-5.825-2.496-10.175-1.458-2.787-3.679-5.865-5.788-8.791-3.088-4.275-5.905-8.176-5.359-8.886.476-.629 2.889-3.168 6.255-6.712l1.904-2.01c.125.314.264.632.406.946 2.04 4.453 8.166 9.753 15.142 14.364 6.641 4.384 14.126 8.206 19.581 10.087-8.143 6.876-13.948 12.212-18.229 16.14l-.076.076-2.255 2.066-.003-.003c-5.934 5.405-4.562 8.192-2.728 11.928l.047.082.155.311-.007.003c.946 1.941 1.915 3.548 2.807 5.029.615 1.028 1.197 1.996 1.706 2.985.585 1.131 1.485 1.696 2.45 1.746a2.696 2.696 0 0 0 1.745-.539c.424-.314.8-.767 1.081-1.343.701-1.431.86-3.858-.482-6.883-.843-1.907-.595-3.782.228-5.431 1.134-2.268 3.319-4.153 5.405-5.234 1.809-.939 2.777-1.385 3.67-1.292 1.015.102 2.413.839 5.041 2.248a42.796 42.796 0 0 0 8.093 3.359c2.893.859 5.637 1.309 8.117 1.441 2.119.109 3.811-.39 4.727-1.117.552-.44.906-.986 1.025-1.607.136-.684-.026-1.365-.509-1.987-.625-.81-1.951-1.547-4.1-1.954-2.896-.545-6.549-1.481-9.666-2.635-2.347-.869-4.334-1.834-5.326-2.797a1.07 1.07 0 0 1-.169-.204c-.145-.262-.049-.662.152-1.101.321-.678.9-1.386 1.481-1.991.791-.813 1.505-1.365 1.686-1.467.49-.272.913-.734 1.386-1.253.489-.533 1.074-1.174 1.229-1.197h.007c.446-.06 1.025-.116 1.967-.208 1.699-.162 4.486-.437 9.075-.949 3.2-.357 5.448-.903 6.995-1.478 2.923-1.084 3.796-2.651 3.796-3.584 0-1.864-3.151-1.914-7.693-1.98-4.5-.063-10.735-.155-15.905-.84l.922-.76c5.604-4.602 12.434-12.5 18.596-20.524a264.729 264.729 0 0 0 8.655-11.928 167.662 167.662 0 0 1 4.199 10.17c2.307 6.132 4.473 12.867 5.61 18.5 1.283 6.347 1.739 11.786 1.326 16.467-.404 4.562-1.64 8.394-3.743 11.657-2.248 3.488-11.471 14.92-21.376 27.003-4.232-.833-10.063-1.779-15.631-2.44-6.129-.727-12-1.117-15.194-.644-3.696.552-6.182.948-7.736 1.381-2.684.754-3.465 1.799-2.665 3.535.017.049.04.102.067.152.529 1.061 1.712 1.342 3.345 1.722 2.314.542 5.981 1.408 7.855 4.704 1.458 2.572 2.308 5.392 2.308 7.574 0 .705-.086 1.31-.261 1.769l-.024.056c-.145.354-.347.619-.605.764-.198.112-.469.178-.816.178-1.62 0-3.789.245-6.047.503-3.894.446-8.08.926-9.233.205-.995-.625-1.789-2.962-2.774-5.875-.754-2.225-1.613-4.754-2.837-7.27-3.239-6.645-5.408-6.638-9.438-6.621l-.509.003v-.007c-2.288 0-4.086.42-5.551 2.04-1.306 1.445-2.175 3.809-2.681 7.713-.555 4.255 1.792 11.515 5.937 17.773 3.415 5.147 8.084 9.713 13.413 11.515 4.582 1.55 9.911 2.211 15.297 2.512-4.735 6.288-6.821 10.606-6.133 15.873.747 5.747 3.352 10.528 5.537 14.538.629 1.154 1.224 2.246 1.733 3.303.568 1.177 1.2 1.859 1.825 2.126l.132.047c1.025.379 1.831.026 2.41-.933.03-.05.056-.095.083-.148.218-.43.373-.996.449-1.657.251-2.179-.251-6.216-1.868-9.899-1.21-2.757-1.187-5.012-.499-6.958.721-2.043 2.195-3.869 3.779-5.597l.069-.079.364-.397.003-.003.004.003c2.621-2.873 2.876-3.154 8.793-3.825 3.25-.367 6.07-.407 8.56.132 2.39.522 4.499 1.597 6.443 3.465 1.931 1.862 3.521 2.845 4.638 3.125.747.184 1.405.118 1.951-.176l.142-.089c.582-.364.936-.93 1.041-1.667.116-.813-.125-1.914-.77-3.193a17.876 17.876 0 0 0-5.177-6.292c-2.645-2.01-6.361-3.689-11.581-4.185-3.22-.308-7.052-.35-11.144-.393-1.452-.017-2.939-.034-4.44-.063 1.005-1.237 2.086-2.552 3.249-3.967l1.544-1.885.09-.102c2.469-3.012 5.53-6.718 9.074-11.006 4.46-5.402 9.644-11.667 14.719-17.855 1.22.261 2.211.502 2.896.704 2.175.638 5.812 4.261 9.541 8.906 4.238 5.29 8.473 11.812 10.86 16.897 2.172 4.638 2.972 9.296 1.795 14.12h-.003c-1.207 4.919-4.477 10.087-10.434 15.673l-2.159 2.024c-12.205 11.444-28.557 26.781-31.049 28.302-.853.522-2.391.271-3.558.079-1.097-.175-2-.32-2.773.044-1.187.562-1.561 1.503-.787 3.143l.003.007h-.003l.205.427.059.115c.84 1.756 1.3 2.969-2.221 7.22a656.708 656.708 0 0 0-4.328 5.317c-7.448 9.203-20.692 25.571-24.768 29.048l-.07.06a2.443 2.443 0 0 1-.489.305c-.711.33-1.593.178-2.582-.365-1.266-.69-2.661-1.962-4.129-3.685-3.713-4.355-7.72-11.393-11.336-19.179-2.804-6.033-6.004-14.192-8.893-22.067-4.394-11.974-8.05-23.227-8.51-25.336-.297-1.369-.84-2.322-1.461-2.795-.648-.496-1.362-.601-2.086-.31l-.132.062c-.473.229-.876.636-1.177 1.217-.552 1.072-.89 3.191-.589 6.342.37 3.91 2.523 13.875 6.199 25.501 2.575 8.153 5.908 17.168 9.905 25.549 4.486 9.409 8.44 15.737 11.204 20.156 2.843 4.554 4.271 6.834 3.715 7.85-1.064 1.947-4.436 6.241-14.364 13.567v-.007c-6.576 4.849-15.961 10.973-29.341 18.51-14.972 8.441-25.492 12.246-33.496 15.139-10.447 3.779-16.764 6.063-23.105 14.757-4.529 6.215-12.632 18.471-21.33 31.949-12.361 19.142-25.992 40.839-32.362 51.217-3.406 5.544-8.047 7.875-12.325 7.809a11.348 11.348 0 0 1-5.263-1.383 11.38 11.38 0 0 1-4.05-3.703c-2.463-3.672-3.052-9.111-.066-15.485 7.25-15.472 19.895-33.704 30.223-48.591 2.8-4.046 5.438-7.846 7.782-11.326 6.48-9.627 9.108-10.966 11.34-9.464.909.614 1.907 1.674 3.038 2.882a86.573 86.573 0 0 0 1.785 1.865c2.374 2.376 4.596 3.282 6.242 3.173.916-.062 1.686-.407 2.268-.992.565-.562.919-1.319 1.028-2.215.208-1.761-.618-4.241-2.899-6.79-.824-.926-1.554-1.683-2.222-2.38-3.286-3.422-4.896-5.101-.549-10.1 2.972-3.418 1.104-12.573-1.223-23.985-3.342-16.394-7.696-37.711-.152-50.641 6.642-11.389 9.505-26.825 8.738-44.109-.761-17.27-5.145-36.418-12.983-55.232-7.144-17.138-8.324-37.669-5.428-58.344a171.385 171.385 0 0 1 2.172-12.212zM57.144 807.345a1.583 1.583 0 0 0 1.65 2.702c29.45-18.088 52.419-39.117 74.989-65.812 22.517-26.633 44.624-58.889 72.407-99.514 5.766-8.431 10.008-14.467 13.119-18.378 2.81-3.537 4.453-5.18 5.226-5.18 1.63 0 4.682 2.529 9.217 6.285 6.09 5.045 14.689 12.165 26.931 18.635 9.131 4.827 17.455 8.354 24.167 10.725 9.799 3.468 16.612 4.353 17.849 3.365l.003-.003v.003c.945-.76.982-1.627.201-2.608a1.856 1.856 0 0 0-.175-.189c-1.087-1.104-4.443-2.872-9.098-5.321-8.311-4.381-20.95-11.046-30.927-18.844-8.447-6.606-16.59-13.057-22.484-20.396-5.782-7.203-9.439-15.323-9.144-25.43.327-11.107.396-31.532.208-51.949-.172-18.358-.549-36.703-1.134-48.277-.608-12.041.912-21.704 3.455-29.953 2.555-8.268 6.152-15.161 9.68-21.594 3.768-6.883 5.051-21.162 4.122-35.381-.906-13.749-3.881-27.581-8.691-34.755-1.938-2.893-3.392-5.654-4.42-8.222-1.686-4.212-2.205-7.885-1.845-10.788.334-2.674 1.415-4.645 3.002-5.706.304-.205.638-.38.988-.519 3.204-1.283 12.431.602 22.239 5.471 7.432 3.69 15.082 9.105 20.55 16.187 7.293 9.435 10.841 15.898 11.892 19.339.056.189.106.371.149.533l-.298-.175-.109-.06c-3.871-2.304-9.505-5.61-17.356-5.61-3.309 0-5.882.929-7.287 2.261l-.003.003-.003-.003c-.767.724-1.23 1.587-1.339 2.522-.113.949.145 1.918.816 2.83 1.138 1.551 3.644 3.012 7.806 3.892 5.379 1.137 10.939 2.684 15.207 4.892 3.961 2.053 6.771 4.649 7.098 7.971l.004.03c.208 2.215.267 6.939.333 12.715.179 14.781.437 36.316 3.743 41.979 2.202 3.775 7.375 5.62 13.67 6.962a172.932 172.932 0 0 0-2.202 12.384c-2.968 21.198-1.735 42.3 5.637 59.994 7.703 18.48 12.004 37.255 12.751 54.155.741 16.692-1.983 31.527-8.318 42.386-8.142 13.961-3.656 35.95-.208 52.859 2.152 10.563 3.884 19.035 1.927 21.284-6.238 7.173-3.967 9.538.662 14.364.684.714 1.431 1.492 2.148 2.292 1.61 1.802 2.225 3.342 2.106 4.314-.019.169-.062.284-.122.34-.033.04-.119.066-.235.077-.82.055-2.129-.598-3.788-2.259-.681-.68-1.217-1.253-1.723-1.791-1.253-1.333-2.357-2.513-3.58-3.336-3.944-2.655-7.799-1.451-15.73 10.331-2.288 3.399-4.939 7.22-7.759 11.29-10.391 14.98-23.109 33.32-30.481 49.051-3.524 7.508-2.724 14.057.301 18.583a14.62 14.62 0 0 0 5.164 4.72 14.607 14.607 0 0 0 6.74 1.765c5.307.08 10.996-2.704 15.063-9.322 6.35-10.344 19.961-32.002 32.325-51.154 8.715-13.497 16.785-25.719 21.221-31.803 5.759-7.898 11.74-10.062 21.628-13.64 8.12-2.933 18.788-6.794 33.969-15.349 13.495-7.608 22.993-13.8 29.658-18.717v-.006c10.424-7.689 14.08-12.417 15.27-14.599 1.445-2.641-.307-5.449-3.802-11.039-2.717-4.349-6.608-10.575-11.028-19.845-3.928-8.235-7.207-17.108-9.743-25.138-3.614-11.435-5.723-21.109-6.077-24.845a30.468 30.468 0 0 1-.076-.95c1.376 4.531 4.417 13.648 7.908 23.159 2.913 7.934 6.143 16.176 8.993 22.306 3.725 8.017 7.888 15.312 11.808 19.908 1.706 2.001 3.392 3.518 5.019 4.404 1.894 1.038 3.726 1.253 5.422.462.403-.188.8-.439 1.19-.756l.099-.079c4.331-3.693 17.677-20.183 25.178-29.457 1.941-2.397 3.495-4.317 4.305-5.293 4.344-5.246 4.112-7.322 3.018-9.776 1.6.248 3.574.457 5.263-.579 2.771-1.689 19.261-17.153 31.572-28.695l2.156-2.027c6.433-6.033 9.987-11.719 11.343-17.22h-.004l.004-.007c1.368-5.59.466-10.929-2.007-16.206-2.49-5.312-6.88-12.086-11.257-17.545-4.089-5.097-8.278-9.127-11.115-9.961a32.441 32.441 0 0 0-1.544-.4c9.568-11.686 18.316-22.56 20.557-26.041 2.387-3.706 3.789-8.013 4.238-13.098.44-4.959-.036-10.688-1.385-17.356-1.183-5.839-3.395-12.745-5.746-18.996-1.732-4.592-3.554-8.86-5.111-12.117 3.27-4.965 5.577-8.946 6.212-10.748.923-2.628 2.486-10.344 4-18.774 1.885-10.454 3.706-22.058 4.136-26.382.341-3.408-.254-6.499-1.253-9.141-1.461-3.848-3.792-6.751-5.326-8.285-1.246-1.246-2.873-2.066-4.241-2.258-.721-.102-1.405-.043-2 .192l.003.003h-.003c-.738.295-1.306.824-1.617 1.614-.301.77-.311 1.752.079 2.949.609 1.871 1.124 4.473 1.091 6.198a101.616 101.616 0 0 1-6.476-4.595c-1.838-1.422-3.594-2.919-4.767-4.208-1.323-1.455-.972-5.029-.662-8.216.275-2.81.523-5.379-.366-6.982-1.012-1.822-3.911-4.39-7.945-6.295a29.307 29.307 0 0 0-6.314-2.145c6.556-13.806 11.349-26.111 11.191-34.372-.093-4.834-1.577-8.824-3.888-11.905a18.53 18.53 0 0 0-6.9-5.62 18.782 18.782 0 0 0-8.341-1.802c-3.435.069-6.807 1.117-9.59 3.207-3.554 2.668-8.15 8.608-12.613 15.23-7.703 11.436-15.138 25.073-15.892 26.98-.852 2.159-.542 3.667.731 4.956 1.005 1.015 2.579 1.716 4.665 2.526 1.821.704 3.584 1.448 5.194 2.433 1.54.949 2.962 2.139 4.182 3.775l.165.225c-1.058-.281-2.542-.998-4.291-2.172-2.847-1.914-5.515-3.071-7.793-3.504-2.651-.503-4.859-.05-6.383 1.316-1.098.981-3.852 4.754-6.996 9.326-3.914 5.693-8.499 12.705-11.2 17.055-2.52 4.067-4.272 6.92-4.477 9.274-.251 2.899 1.386 4.681 5.859 5.944 3.448.975 5.613 1.643 7.2 2.519 1.491.816 2.555 1.894 3.884 3.709h.004c.248.337.443.635.595.886-.856-.225-2.053-.73-3.544-1.517-2.83-1.495-6.526-2.533-9.974-3.062-3.852-.591-7.511-.548-9.459.192-1.762.671-5.623 5.009-9.67 10.222-4.75 6.126-9.911 13.571-12.07 17.456-2.916 5.246-2.314 6.817.08 8.146.403.224.833.41 1.312.611l.119.053c.84.354 1.848.777 2.833 1.471.367.258 1.048.724 1.716 1.177 3.534 2.397 7.27 4.933 12.477 12.094 2.443 3.355 3.021 5.868 2.681 7.349-.076.33-.198.575-.344.73a.429.429 0 0 1-.254.159c-.258.036-.615-.152-.996-.595-1.679-1.941-4.145-4.48-6.935-6.92-2.222-1.943-4.659-3.834-7.072-5.325-3.187-1.967-7.68-3.832-12.057-4.004-3.481-.139-6.89.77-9.574 3.455-1.908 1.904-5.22 4.618-8.89 7.62-6.605 5.402-14.344 11.73-17.634 16.461-4.06 5.835-1.547 10.367 3.845 20.09 2.089 3.775 4.645 8.387 7.491 14.354 4.639 9.727 7.816 21.519 9.449 33.5 1.706 12.49 1.742 25.172.03 35.923-1.862 11.673-7.502 20.638-11.525 24.569-.668.653-1.263 1.141-1.765 1.462.059-.222.138-.493.241-.813 1.564-4.851 4.146-13.066 5.789-22.65 1.653-9.653 2.36-20.705.142-31.162-2.324-10.966-7.455-23.684-13.75-33.932-5.716-9.317-12.457-16.666-19.042-18.99-5.078-1.788-10.976-2.783-16.616-3.736-1.593-.267-3.17-.532-4.694-.809 4.278-18.332 11.435-36.125 20.136-51.094.361-.622.721-1.23 1.078-1.832 3.62 3.743 8.45 4.295 14.989-1.157 8.113-6.761 17.41-17.789 22.494-25.502 1.514-2.295 2.671-4.318 3.329-5.868.919-2.166.946-3.822-.139-4.715a2.208 2.208 0 0 0-.895-.453c-2.563-.638-10.758-.181-21.727 9.571-5.416 4.814-11.601 11.931-18.236 22.385-2.255-4.318-3.706-10.526-4.728-16.427-1.672-9.604-8.284-26.776-13.313-39.827v-.007c-2.499-6.493-4.605-11.958-5.484-14.903-2.044-6.854 1.091-8.07 9.908-11.489l2.165-.839.003-.004v.004c5.121-2.007 9.819-3.449 13.856-4.421 4.846-1.167 8.751-1.666 11.293-1.666 1.841 0 3.193-.8 3.848-1.967.41-.73.539-1.58.341-2.459-.179-.774-.605-1.554-1.306-2.255l-.096-.089c-1.828-1.746-5.703-3.204-12.193-2.751-9.894.688-22.821 6.595-30.682 10.189-2.916 1.332-5.108 2.334-6.007 2.559h-.004c-3.392.846-39.893-10.097-78.305-22.616-39.073-12.738-79.948-27.126-90.048-32.498-4.681-2.489-8.546-6.268-11.621-10.325-4.41-5.825-7.184-12.192-8.433-16.235l-.003-.007h.003a3.034 3.034 0 0 1-.053-.195v-.007c-.79-3.884 6.628-10.301 21.595-18.206 15.581-8.228 39.106-17.693 69.901-27.228 26.798-8.294 59.088-16.635 96.422-24.249 52.301-10.668 93.579-13.835 124.14-12.844 41.407 1.346 62.76 10.034 64.939 17.915.026.1.053.219.073.354.406 2.331-1.396 4.982-5.307 7.892-32.041-16.239-116.962-8.54-194.917 6.572-33.327 6.456-65.382 14.245-91.433 22.054-26.163 7.845-46.35 15.746-55.798 22.408-5.399 3.802-7.571 7.445-5.822 10.774 2.007 3.805 25.42 5.157 65.432 1.941 30.95-2.49 72.116-7.528 121.266-15.995 43.206-7.438 78.825-15.167 106.033-22.695 21.204-5.862 37.321-11.611 47.956-17.016 3.015-1.531 5.604-3.051 7.766-4.559 4.576 2.767 7.65 6.182 8.946 10.321.572 1.842 1.349 5.954 1.531 10.761-22.299 7.171-41.447 16.775-57.597 27.212l-.102.056c-43.14 27.896-64.966 61.828-68.54 70.959-2.364 6.04-3.484 14.815-3.845 23.592-.516 12.47.493 25.066 1.61 29.727.741 3.081 2.648 4.867 4.804 5.392a5.744 5.744 0 0 0 3.048-.096 6.543 6.543 0 0 0 2.714-1.649c2.113-2.103 3.395-5.994 2.126-11.495-1.336-5.796-1.564-11.138.135-17.195 1.729-6.175 5.452-13.144 11.995-22.123 10.251-14.067 58.892-50.36 84.431-69.419 7.164-5.346 12.51-9.336 14.777-11.178 4.13-3.352 6.202-8.625 7.085-14.152.39-2.43.552-4.92.556-7.317 11.537-3.587 23.922-6.516 37.169-8.559 45.844-7.071 99.529-22.976 147.165-50.264 38.247-21.908 72.603-51.166 95.903-89.082a1.586 1.586 0 1 0-2.701-1.663c-22.996 37.423-56.955 66.324-94.779 87.991-47.262 27.076-100.554 42.859-146.071 49.881-13.082 2.017-25.33 4.889-36.769 8.404-.255-4.794-1.038-8.847-1.62-10.725-1.408-4.499-4.675-8.215-9.521-11.23 4.189-3.462 6.056-6.834 5.501-10.06a6.941 6.941 0 0 0-.152-.661c-2.486-8.989-24.887-18.838-67.885-20.233-30.775-.999-72.305 2.182-124.877 12.906-37.446 7.637-69.835 16.001-96.719 24.323-31.004 9.597-54.711 19.141-70.444 27.449-16.345 8.632-24.312 16.285-23.221 21.644.04.192.086.364.129.509 1.335 4.301 4.271 11.062 8.929 17.211 3.323 4.387 7.528 8.487 12.662 11.217 10.245 5.449 51.335 19.922 90.554 32.706 38.135 12.431 74.669 23.258 79.79 22.722h.026l.047-.006c.056-.007.112-.017.168-.03l.023-.003v-.004c1.171-.29 3.485-1.352 6.559-2.757 7.657-3.501 20.253-9.256 29.579-9.904 5.445-.381 8.476.624 9.769 1.851l.063.073c.268.264.416.502.459.7.02.09.017.166-.013.219-.115.201-.486.344-1.084.344-2.724 0-6.886.525-12.027 1.765-4.189 1.008-9.039 2.493-14.275 4.546h.003l-2.156.839c-10.837 4.196-14.685 5.693-11.809 15.343.893 2.979 3.032 8.533 5.574 15.138h.004c4.972 12.907 11.508 29.886 13.134 39.229 1.194 6.87 2.969 14.189 5.958 18.943-.579.956-1.154 1.928-1.739 2.933-8.867 15.25-16.153 33.39-20.504 52.072-5.544-1.167-10.004-2.681-11.624-5.458-2.893-4.959-3.144-25.995-3.316-40.429-.069-5.848-.129-10.635-.35-12.969l-.003-.05c-.45-4.578-3.921-7.951-8.791-10.473-4.562-2.364-10.397-3.994-16.017-5.18-3.313-.698-5.181-1.68-5.895-2.662-.172-.231-.245-.436-.225-.598.02-.175.149-.38.377-.592h-.003c.856-.81 2.641-1.379 5.111-1.379 7.015 0 12.182 3.035 15.739 5.151l.113.073.942.555.076.05c.711.413 1.385.602 1.997.562.069-.003.139-.007.208-.017 1.147-.178 1.835-.938 1.977-2.267.076-.724-.053-1.69-.413-2.887-1.141-3.739-4.863-10.585-12.411-20.355-5.798-7.504-13.848-13.217-21.654-17.091-10.576-5.254-20.93-7.125-24.818-5.571a8.305 8.305 0 0 0-1.573.83c-2.351 1.577-3.938 4.324-4.391 7.951-.42 3.388.159 7.6 2.057 12.351 1.1 2.754 2.658 5.706 4.73 8.8 4.49 6.692 7.284 19.925 8.156 33.196.896 13.706-.258 27.317-3.735 33.668-3.604 6.579-7.29 13.637-9.928 22.179-2.645 8.566-4.222 18.583-3.594 31.03.589 11.594.965 29.883 1.134 48.152.192 20.371.119 40.747-.205 51.841-.321 10.969 3.613 19.747 9.839 27.495 6.116 7.61 14.4 14.18 23.003 20.908 10.215 7.987 22.993 14.724 31.4 19.154 1.593.834 3.018 1.591 4.225 2.235-2.542-.638-6.106-1.722-10.48-3.272-6.589-2.329-14.761-5.793-23.744-10.537-11.938-6.311-20.394-13.317-26.385-18.276-5.064-4.194-8.473-7.018-11.237-7.018-1.841 0-4.238 2.023-7.706 6.38-3.164 3.984-7.445 10.077-13.254 18.567-27.733 40.551-49.797 72.744-72.212 99.255-22.358 26.444-45.09 47.263-74.22 65.154" fill="#272C69"/></svg>