<svg width="123" height="22" viewBox="0 0 123 22" fill="none" xmlns="http://www.w3.org/2000/svg"><path d="M.309 21.013h4.067v-5.181h3.368c4.56 0 7.643-2.643 7.643-6.58 0-3.809-3.006-6.374-7.462-6.374H.31v18.135zm4.067-8.55V6.273h3.16c2.229 0 3.783 1.218 3.783 2.98 0 1.89-1.554 3.212-3.782 3.212h-3.16zM24.012 21.427c4.016 0 6.684-2.357 6.684-5.88V8.448H26.81v6.736c0 1.762-1.088 2.927-2.798 2.927-1.684 0-2.798-1.165-2.798-2.927V8.448h-3.886v7.099c0 3.523 2.694 5.88 6.684 5.88zM39.246 21.427c3.756 0 6.036-1.528 6.036-4.119 0-5.362-8.16-2.953-8.16-5.466 0-.751.88-1.14 1.917-1.14 1.217 0 2.435.544 2.616 1.58h3.523c-.284-2.798-2.797-4.248-6.062-4.248-3.471 0-5.751 1.632-5.751 4.067 0 5.415 8.083 2.927 8.083 5.389 0 .673-.803 1.14-2.099 1.14-1.683 0-2.85-.596-3.056-1.788H32.82c.13 2.772 2.59 4.585 6.425 4.585zM47.895 21.013h3.886v-6.865c0-1.71 1.14-2.798 2.876-2.798 1.658 0 2.72 1.165 2.72 2.927v6.736h3.912v-7.254c0-3.342-2.28-5.725-5.518-5.725-1.399 0-2.85.492-3.938 1.632h-.051V1.013h-3.886v20zM65.766 21.013h3.912v-9.43h3.938V8.448h-3.938V6.246c0-1.477 1.088-2.383 2.875-2.383.337 0 .7.051 1.063.13V.805c-.622-.182-1.27-.233-1.866-.233-3.627 0-5.984 2.202-5.984 5.621v2.254h-2.954v3.135h2.954v9.43zm9.533 0h3.886v-20H75.3v20zM88.957 21.427c4.275 0 7.125-2.668 7.125-6.684 0-4.04-2.85-6.71-7.125-6.71-4.274 0-7.124 2.67-7.124 6.71 0 4.016 2.85 6.684 7.124 6.684zm0-3.212c-2.046 0-3.42-1.373-3.42-3.472 0-2.098 1.374-3.497 3.42-3.497 2.047 0 3.42 1.4 3.42 3.497 0 2.099-1.373 3.472-3.42 3.472zM112.767 21.013h-4.249v-7.254h-.078l-5.906 7.254h-4.197V8.448h3.886v7.798h.078l6.062-7.798h4.041v7.798h.052l6.088-7.798H123l-10.233 12.565z" fill="#FC5056"/></svg>